HIERARCHY
ROOT Hips
{
	OFFSET 0.000000 0.000000 0.000000
	CHANNELS 6 Xposition Yposition Zposition Zrotation Yrotation Xrotation 
	JOINT LHipJoint
	{
		OFFSET 0.000000 0.000000 0.000000
		CHANNELS 3 Zrotation Yrotation Xrotation
		JOINT LeftUpLeg
		{
			OFFSET 8.178360 -10.767780 5.035740
			CHANNELS 3 Zrotation Yrotation Xrotation
			JOINT LeftLeg
			{
				OFFSET 14.688660 -40.356780 0.000000
				CHANNELS 3 Zrotation Yrotation Xrotation
				JOINT LeftFoot
				{
					OFFSET 15.373200 -42.237540 0.000000
					CHANNELS 3 Zrotation Yrotation Xrotation
					JOINT LeftToeBase
					{
						OFFSET 0.945840 -2.598660 13.935300
						CHANNELS 3 Zrotation Yrotation Xrotation
						End Site
						{
							OFFSET 0.000000 0.000000 0.000000
						}
					}
				}
			}
		}
	}
	JOINT RHipJoint
	{
		OFFSET 0.000000 0.000000 0.000000
		CHANNELS 3 Zrotation Yrotation Xrotation
		JOINT RightUpLeg
		{
			OFFSET -7.833120 -10.767780 5.035740
			CHANNELS 3 Zrotation Yrotation Xrotation
			JOINT RightLeg
			{
				OFFSET -15.255180 -41.913300 0.000000
				CHANNELS 3 Zrotation Yrotation Xrotation
				JOINT RightFoot
				{
					OFFSET -15.409560 -42.337380 0.000000
					CHANNELS 3 Zrotation Yrotation Xrotation
					JOINT RightToeBase
					{
						OFFSET -0.988380 -2.715540 14.178900
						CHANNELS 3 Zrotation Yrotation Xrotation
						End Site
						{
							OFFSET 0.000000 0.000000 0.000000
						}
					}
				}
			}
		}
	}
	JOINT LowerBack
	{
		OFFSET 0.000000 0.000000 0.000000
		CHANNELS 3 Zrotation Yrotation Xrotation
		JOINT Spine
		{
			OFFSET 0.169620 12.213540 -1.160280
			CHANNELS 3 Zrotation Yrotation Xrotation
			JOINT Spine1
			{
				OFFSET 0.340320 12.293100 -0.256500
				CHANNELS 3 Zrotation Yrotation Xrotation
				JOINT Neck
				{
					OFFSET 0.000000 0.000000 0.000000
					CHANNELS 3 Zrotation Yrotation Xrotation
					JOINT Neck1
					{
						OFFSET -0.325020 10.477440 1.032120
						CHANNELS 3 Zrotation Yrotation Xrotation
						JOINT Head
						{
							OFFSET 0.624420 10.568160 -0.743820
							CHANNELS 3 Zrotation Yrotation Xrotation
							End Site
							{
								OFFSET 0.000000 0.000000 0.000000
							}
						}
					}
				}
				JOINT LeftShoulder
				{
					OFFSET 0.000000 0.000000 0.000000
					CHANNELS 3 Zrotation Yrotation Xrotation
					JOINT LeftArm
					{
						OFFSET 20.174460 7.205340 -1.867260
						CHANNELS 3 Zrotation Yrotation Xrotation
						JOINT LeftForeArm
						{
							OFFSET 29.898000 -0.000000 -0.000000
							CHANNELS 3 Zrotation Yrotation Xrotation
							JOINT LeftHand
							{
								OFFSET 20.901360 -0.000000 -0.000000
								CHANNELS 3 Zrotation Yrotation Xrotation
								JOINT LeftFingerBase
								{
									OFFSET 0.000000 0.000000 0.000000
									CHANNELS 3 Zrotation Yrotation Xrotation
									JOINT LeftHandIndex1
									{
										OFFSET 4.291560 -0.000000 -0.000000
										CHANNELS 3 Zrotation Yrotation Xrotation
										End Site
										{
											OFFSET 0.000000 0.000000 0.000000
										}
									}
								}
								JOINT LThumb
								{
									OFFSET 0.000000 0.000000 0.000000
									CHANNELS 3 Zrotation Yrotation Xrotation
									End Site
									{
										OFFSET 0.000000 0.000000 0.000000
									}
								}
							}
						}
					}
				}
				JOINT RightShoulder
				{
					OFFSET 0.000000 0.000000 0.000000
					CHANNELS 3 Zrotation Yrotation Xrotation
					JOINT RightArm
					{
						OFFSET -18.819600 8.244300 -2.427900
						CHANNELS 3 Zrotation Yrotation Xrotation
						JOINT RightForeArm
						{
							OFFSET -31.451400 -0.000000 -0.000000
							CHANNELS 3 Zrotation Yrotation Xrotation
							JOINT RightHand
							{
								OFFSET -20.665020 -0.000000 -0.000000
								CHANNELS 3 Zrotation Yrotation Xrotation
								JOINT RightFingerBase
								{
									OFFSET 0.000000 0.000000 0.000000
									CHANNELS 3 Zrotation Yrotation Xrotation
									JOINT RightHandIndex1
									{
										OFFSET -3.735180 -0.000000 -0.000000
										CHANNELS 3 Zrotation Yrotation Xrotation
										End Site
										{
											OFFSET 0.000000 0.000000 0.000000
										}
									}
								}
								JOINT RThumb
								{
									OFFSET 0.000000 0.000000 0.000000
									CHANNELS 3 Zrotation Yrotation Xrotation
									End Site
									{
										OFFSET 0.000000 0.000000 0.000000
									}
								}
							}
						}
					}
				}
			}
		}
	}
}
MOTION
Frames:	12
Frame Time:	0.0333333
-56.412522 106.216170 -196.896924 0.092358 -0.209073 -0.538628 1.101265 2.124722 1.854648 -19.894237 -6.209494 -8.326857 9.971923 16.711075 60.519290 2.005739 -4.756168 26.284471 0.421200 -4.165300 -11.542100 -3.337920 -2.559288 1.049081 26.057808 11.624374 -17.906323 -2.484063 -9.985252 30.508733 0.804576 -5.283265 2.208800 -0.132200 -2.343400 6.455700 -3.568168 -3.764281 5.364612 4.763905 -5.466009 -3.403533 8.221134 -2.311935 -4.293352 -14.376898 0.987277 -3.135393 6.631078 2.398670 11.301850 3.757700 0.689500 6.279200 -7.299894 2.288863 -2.307146 -82.723877 1.696545 15.734970 10.616285 -22.019943 -2.861791 -1.504735 -3.059625 9.386083 16.776925 22.764191 8.018100 -7.125000 0.000000 0.000000 -13.236800 56.639700 -3.823300 5.854111 -0.787248 -0.999527 -6.664643 -2.025960 0.003317 1.617576 0.470976 0.000100 0.151975 0.043730 0.000050 0.151976 0.043730 0.000000 0.000000 0.000000 0.000000 0.000000 0.000000 0.000000 
-56.613126 106.998342 -190.690482 -0.431594 -2.604918 -0.322677 1.209114 1.940333 1.575861 -19.561091 -5.554183 -15.165086 10.619534 17.329970 62.472701 1.051398 -2.599200 16.766250 0.335900 -3.724400 -10.302600 -3.284221 -2.582696 1.028485 27.507303 10.809441 -13.088666 -2.170809 -9.217011 28.715036 0.567172 -3.979465 0.677421 -0.051700 -1.466700 4.033800 -2.685619 -1.988839 5.228554 4.416657 -3.005558 -3.156545 6.611210 -1.096653 -4.258359 -13.172047 -0.443992 -4.869546 6.719059 0.634530 12.430813 3.493400 -0.082100 7.315000 -7.301731 2.397408 -2.437153 -82.496199 3.233772 20.049626 10.104395 -21.302604 -2.608583 -1.507957 -3.008754 10.001738 16.463292 22.143309 7.675200 -7.125000 0.000000 0.000000 -13.246400 55.920100 -3.593800 5.875818 -0.711387 -0.953891 -6.718527 -2.070415 0.002913 1.643325 0.475588 0.000099 0.155477 0.044508 0.000049 0.155477 0.044508 0.000000 0.000000 0.000000 0.000000 0.000000 0.000000 0.000000 
-56.922312 106.967052 -184.615326 -1.850614 -2.247726 -0.340504 1.604175 1.750550 1.239417 -18.303301 -7.084305 -20.966839 10.561031 17.593706 62.066727 0.111367 1.118978 8.456144 0.335800 -3.724100 -10.301900 -2.971193 -2.579068 1.034860 29.647102 9.526060 -8.498570 -2.053588 -8.780732 27.802770 0.840773 -5.138019 -2.529087 -0.003500 -0.384700 1.056900 -2.717773 -2.230715 5.302885 2.840446 -3.539269 -2.544538 10.196004 -1.011944 -5.457790 -10.135463 0.433073 -4.938376 4.288776 1.639575 13.009920 3.749100 0.137400 7.175800 -7.416369 3.632681 -2.439603 -85.233594 6.361525 21.600312 10.448946 -20.194609 -2.307853 -0.876457 -3.545441 7.879605 13.299603 24.527977 6.586600 -7.125000 0.000000 0.000000 -18.756000 57.886500 -6.055700 6.526130 -2.589446 -2.231119 76.586729 -6.919899 10.516267 -10.678452 16.835388 -2.053840 0.787845 -2.386586 14.309630 -14.456345 25.526023 -7.456000 7.125000 0.000000 0.000000 8.565800 -1.801200 8.387500 
-57.014946 106.428432 -178.897206 -2.717250 -3.581783 -0.248964 1.544685 1.542897 1.086942 -17.166453 -7.679218 -26.448196 9.422387 17.327170 58.387168 -0.728030 4.819331 4.005363 0.021400 -0.943900 -2.594400 -3.013563 -2.601562 1.121414 31.255879 9.120338 -4.483133 -1.991589 -8.449412 27.267687 0.792163 -5.208372 -5.863613 -0.042400 -1.328400 3.652900 -2.183249 -2.245996 6.098216 3.142800 -3.551318 -2.817699 10.839200 -0.825049 -6.713063 -11.023789 0.771495 -4.243484 3.974194 2.226199 13.447370 3.805900 0.285000 7.224800 -7.297048 3.742144 -2.574464 -86.888887 10.214626 20.565417 10.333598 -20.097721 -2.295729 -0.747397 -3.487896 8.485158 12.038445 23.786471 5.732700 -7.125000 0.000000 0.000000 -19.681600 56.821600 -5.858200 6.346003 -2.501576 -2.357865 75.177481 -6.493003 19.068587 -12.701093 19.830064 -2.996160 1.029201 -1.481483 9.499688 -14.428919 19.216502 -5.599100 7.125000 0.000000 0.000000 8.190500 -8.997900 6.881300 
-56.991636 105.665280 -172.932474 -4.141868 -5.227105 -0.069713 1.449390 1.327896 0.846186 -15.177589 -7.568535 -30.443937 7.224171 16.242431 51.370550 -1.069729 6.212221 0.885803 0.121300 -2.245100 -6.183500 -2.974897 -2.597325 1.160681 33.194483 8.762850 0.230685 -1.771072 -7.845693 25.830948 0.785315 -5.505849 -8.128930 -0.036100 -1.227200 3.374200 -0.054216 -1.616213 6.279796 3.018632 -2.506828 -2.656226 9.104838 -0.387867 -6.604734 -10.548082 0.755829 -4.658138 4.325583 2.173090 12.365696 3.928900 0.373500 6.892800 -7.231237 3.733554 -2.568685 -86.852439 11.715008 20.953035 10.023345 -19.593822 -2.168958 -0.551807 -3.478388 8.536896 10.423709 23.559325 4.829200 -7.125000 0.000000 0.000000 -21.334800 56.205300 -6.057500 5.965548 -2.359390 -2.391620 75.720446 -4.796732 25.774886 -15.922045 24.251269 -4.694615 1.051499 -0.349306 4.282740 -13.914410 11.136208 -3.019300 7.125000 0.000000 0.000000 8.514600 -18.301800 5.470900 
-56.957892 104.877588 -166.976940 -5.099056 -6.449165 0.250645 1.298282 1.074071 0.502087 -13.234855 -8.215484 -32.220475 4.270250 13.936257 40.995789 -1.206084 6.889819 2.110204 0.100900 -2.048700 -5.640300 -2.752928 -2.577320 1.158643 34.030819 7.523688 4.833664 -1.445643 -7.056312 23.743923 0.658441 -5.299479 -9.718978 -0.019100 -0.892500 2.453000 2.659897 0.617848 6.892779 2.028308 0.736761 -2.025447 4.420437 0.944877 -5.068981 -7.990648 -1.499698 -9.514782 4.703706 -1.029608 12.138852 3.519500 -0.885500 8.267700 -7.361612 3.375726 -2.469183 -83.499194 9.475825 26.591135 9.373608 -18.397225 -1.868382 -0.635566 -3.384892 8.220191 11.005328 22.652474 4.980900 -7.125000 0.000000 0.000000 -20.022300 55.416300 -5.273200 5.695155 -2.124089 -2.347595 78.482815 -0.838927 23.090023 -18.048200 26.780484 -5.856337 1.022694 -0.258707 3.481096 -14.302696 10.967426 -3.028000 7.125000 0.000000 0.000000 8.272100 -18.527300 5.270000 
-56.813118 104.282526 -160.701798 -5.458544 -8.307687 1.070079 0.896295 0.803265 0.173026 -10.552839 -10.398248 -32.636736 1.386410 10.418015 28.429502 -1.487408 9.097945 8.398596 0.041900 -1.321400 -3.633600 -2.527017 -2.593071 1.245739 33.350314 5.720673 9.239804 -0.973145 -5.888564 20.536100 0.302509 -4.035423 -10.519709 -0.010300 0.655300 -1.800800 3.499475 1.791133 6.643998 1.659326 2.296053 -1.856640 2.752487 1.708987 -4.298258 -7.053481 -2.029458 -11.562654 5.024070 -1.869714 11.585993 3.418500 -1.132200 8.584300 -7.374233 3.319096 -2.464029 -83.064139 9.808079 26.698916 8.935774 -17.594874 -1.606828 -0.717297 -3.544022 8.884625 11.496997 24.203096 5.530300 -7.125000 0.000000 0.000000 -20.602900 57.137000 -6.307700 5.529357 -2.003592 -2.307938 78.524298 2.063105 23.383070 -19.494195 28.446039 -6.682113 1.122321 -0.246733 2.343152 -15.657600 11.474018 -3.477100 7.125000 0.000000 0.000000 7.253500 -17.915200 4.708500 
-56.713122 103.489314 -154.292910 -6.154222 -10.146085 2.109653 0.544716 0.667796 -0.123807 -5.686618 -15.438291 -31.576770 -0.242177 7.070713 17.974948 -3.229282 15.097232 6.592205 0.013700 -0.756600 -2.079400 -2.398287 -2.654404 1.364119 32.648985 4.118386 13.506043 -0.514648 -4.611950 17.027295 0.125944 -2.983244 -9.484001 -0.048900 1.427300 -3.925400 4.182099 2.528971 5.880317 1.600946 3.232403 -1.872195 2.192562 2.199990 -3.831440 -7.103674 -2.423659 -12.442632 5.161715 -2.380567 12.279049 3.436200 -1.367100 9.132100 -7.427589 3.354626 -2.450779 -83.730357 10.420042 23.507377 8.215789 -16.242645 -1.298927 -0.999583 -3.339638 10.225604 12.942478 22.256849 5.900300 -7.125000 0.000000 0.000000 -17.618500 55.488800 -4.640400 5.488858 -1.956864 -2.307641 77.871701 4.298374 23.607875 -20.059860 29.076951 -7.021812 1.116079 -0.251705 1.655271 -15.656650 11.789846 -3.573200 7.125000 0.000000 0.000000 7.260800 -17.571300 4.768600 
-56.599632 102.781986 -147.701220 -6.486247 -11.480991 3.021385 0.568341 0.577011 -0.244349 -3.186720 -16.938346 -32.228218 -0.744119 5.654787 13.847227 -4.231202 17.371548 0.869239 0.104300 -2.082600 -5.733900 -2.420071 -2.718198 1.464138 31.429621 2.787023 17.211690 -0.289109 -3.834377 14.991066 -0.114066 -1.416247 -7.507218 -0.125500 2.283700 -6.290300 4.276041 2.981404 5.123676 1.576383 3.768316 -2.160846 2.061056 2.520822 -4.344337 -7.031440 -2.556108 -11.667289 5.104776 -2.612584 12.217290 3.363700 -1.487500 8.953100 -7.505589 3.442213 -2.474606 -84.565569 12.039056 18.323884 7.475256 -14.803764 -0.945524 -1.064339 -3.406315 14.196420 11.757931 23.570126 5.545400 -7.125000 0.000000 0.000000 -19.861700 56.560400 -5.787700 5.536464 -1.952682 -2.304896 77.535530 5.394345 22.450718 -19.598257 28.447970 -6.697544 1.115203 -0.261002 2.582069 -15.847727 11.329363 -3.477700 7.125000 0.000000 0.000000 7.124300 -18.040100 4.603600 
-56.369580 102.180792 -140.684388 -6.048849 -11.847936 2.338276 0.662249 0.589194 -0.170666 -6.721906 -11.824859 -33.349260 -0.569691 6.473134 16.376024 -2.424542 12.041618 5.706397 0.045600 -1.378500 -3.790800 -2.487928 -2.765550 1.458260 29.527674 1.397854 20.796481 -0.413319 -4.039760 15.753597 -0.229902 0.076664 -3.265119 -0.563700 4.808800 -13.364000 4.052323 3.001101 5.022556 1.472577 3.762466 -2.093751 1.836120 2.525380 -4.122802 -7.363687 -2.380287 -11.647251 5.570595 -2.345942 12.768423 3.680700 -1.360100 9.173400 -7.595561 3.579899 -2.456674 -85.256212 13.077434 14.009545 6.868435 -13.592137 -0.698479 -1.237808 -3.308926 16.183460 12.218370 22.999024 5.675700 -7.125000 0.000000 0.000000 -18.946900 56.089600 -5.288300 5.503102 -2.006579 -2.303949 77.857965 5.878708 20.612367 -19.717300 28.512930 -6.732796 1.136490 0.022022 2.574387 -16.191278 8.351905 -2.556900 7.125000 0.000000 0.000000 6.897800 -21.388900 3.935200 
-56.088000 102.004110 -133.039986 -4.397515 -11.651356 1.109256 0.711772 0.681843 0.060022 -10.263161 -11.242172 -32.503426 -0.034766 7.963773 21.289505 -0.285976 4.986097 10.524649 0.452500 -4.315300 -11.965500 -2.524523 -2.786106 1.409767 26.803393 0.793571 22.134454 -1.116259 -5.708973 20.747603 -0.282626 1.089608 3.422173 -0.808200 5.737300 -16.024100 2.587765 3.352321 4.857364 1.191325 4.132294 -2.049946 1.807992 2.712239 -3.982986 -7.303304 -2.832057 -12.007406 5.460872 -2.972271 13.215674 3.541400 -1.656400 9.515400 -7.722163 3.661560 -2.419289 -84.987253 13.282007 13.025414 6.110516 -12.065635 -0.416309 -1.342456 -3.299269 18.503283 11.871641 23.530173 5.603100 -7.125000 0.000000 0.000000 -19.687800 56.543600 -5.726100 5.563693 -2.112313 -2.326677 78.197443 4.846332 15.949276 -19.047378 27.812833 -6.343185 1.058321 -0.354364 2.751296 -15.136166 12.068183 -3.549500 7.125000 0.000000 0.000000 7.657500 -17.235400 5.090700 
-55.621152 102.231708 -125.453250 -2.380832 -11.192214 0.534809 0.868957 0.731316 0.252965 -13.886701 -11.205150 -32.486398 0.749580 9.631450 26.767024 1.340235 -0.071302 19.106440 0.004500 -0.431100 -1.184600 -2.545804 -2.753319 1.375216 23.976571 1.446940 18.568776 -3.059161 -9.155286 31.365463 -0.508512 -0.965592 18.067755 -0.404800 4.084600 -11.314700 1.159624 3.405649 3.997981 0.809449 4.096216 -2.256751 1.481217 2.699953 -4.257936 -7.418139 -3.082445 -11.176140 5.751460 -3.385629 13.649503 3.679900 -1.854800 9.582200 -7.854460 3.796988 -2.429588 -84.452170 13.744631 11.935143 5.656967 -11.176541 -0.301338 -1.414329 -3.132920 21.064171 11.388669 22.635711 5.172100 -7.125000 0.000000 0.000000 -19.581500 55.479300 -5.180800 5.477836 -2.226223 -2.381431 78.923565 2.626930 13.539458 -18.930015 27.757137 -6.284123 1.083311 -0.264814 0.872546 -14.928030 11.701972 -3.386900 7.125000 0.000000 0.000000 7.793500 -17.682100 5.105800 
